# xmcd
#
# Track frame offsets:
#	150
#	11020
#	14565
#	24294
#	41600
#	50830
#	61668
#	72718
#	82110
#	91862
#	99887
#	106758
#	116261
#	127674
#	132376
#	135305
#	154339
#	159296
#	165241
#	172263
#	177259
#	183120
#	192576
#	205571
#	211237
#	224794
#	233632
#	241410
#	248246
#	254053
#	264270
#	265540
#	272660
#	282147
#	300358
#	311310
#
# Disc length: 4283 seconds
#
# Revision: 0
# Processed by: cddbd v1.5.2PL0 Copyright (c) Steve Scherf et al.
# Submitted via: EZCDAudioConverter 2.1.7.1
#
DISCID=e710b924
DTITLE=Christopher Komeda - Rosemary's Baby
DYEAR=1900
DGENRE=
TTITLE0=Mia Farrow - Lullaby From Rosemary's Baby (Part 1)
TTITLE1=Christopher Komeda - The Coven
TTITLE2=Christopher Komeda - Moment Musical
TTITLE3=Christopher Komeda - Dream
TTITLE4=Christopher Komeda - Christmas
TTITLE5=Christopher Komeda - Expectancy
TTITLE6=Mia Farrow - Main Title [Vocal]
TTITLE7=Christopher Komeda - Panic
TTITLE8=Christopher Komeda - Rosemary's Party
TTITLE9=Christopher Komeda - Through The Closet
TTITLE10=Christopher Komeda - What Have You Done To Its Eyes
TTITLE11=Christopher Komeda - Happy News
TTITLE12=Christopher Komeda - Main Title
TTITLE13=Christopher Komeda - Furnishing The Apartment
TTITLE14=Christopher Komeda - Chanting
TTITLE15=Christopher Komeda - Dream
TTITLE16=Christopher Komeda - Lullaby
TTITLE17=Christopher Komeda - The Pain/How To Prepare A Good Steak/The Ear
TTITLE18=Christopher Komeda - Holiday Music
TTITLE19=Christopher Komeda - After The Call To Hutch/Good Appetite
TTITLE20=Christopher Komeda - Lullaby ─ Crib Sequence
TTITLE21=Christopher Komeda - Scrabble
TTITLE22=Christopher Komeda - Book About Witchcraft/The Horrible Doctor/The Fr
TTITLE22=agrance
TTITLE23=Christopher Komeda - The Horrible Doctor #2/The Short Dream
TTITLE24=Christopher Komeda - The Iron Bars/Elevator ─ Lift/Dr. Sapirstein And
TTITLE24=Syringe
TTITLE25=Christopher Komeda - Path To Pit Of Evil #1
TTITLE26=Christopher Komeda - Path To Pit Of Evil #2-3
TTITLE27=Christopher Komeda - What Have You Done?
TTITLE28=Christopher Komeda - End Title
TTITLE29=Christopher Komeda - Moment Musical
TTITLE30=Christopher Komeda - Bossa Nova
TTITLE31=Christopher Komeda - TV Music
TTITLE32=Christopher Komeda - Moment In Time
TTITLE33=Christopher Komeda - Moment Musical Jazz
TTITLE34=Christopher Komeda - Lullaby From Rosemary's Baby [Main Title Film So
TTITLE34=undtrack, Excerpt]
TTITLE35=Mia Farrow - Lullaby From Rosemary's Baby (Part 2) [Dot Records Singl
TTITLE35=e, B-Side]
EXTD=
EXTT0=
EXTT1=
EXTT2=
EXTT3=
EXTT4=
EXTT5=
EXTT6=
EXTT7=
EXTT8=
EXTT9=
EXTT10=
EXTT11=
EXTT12=
EXTT13=
EXTT14=
EXTT15=
EXTT16=
EXTT17=
EXTT18=
EXTT19=
EXTT20=
EXTT21=
EXTT22=
EXTT23=
EXTT24=
EXTT25=
EXTT26=
EXTT27=
EXTT28=
EXTT29=
EXTT30=
EXTT31=
EXTT32=
EXTT33=
EXTT34=
EXTT35=
PLAYORDER=
